<svg width="820" height="220" viewBox="0 0 820 220" xmlns="http://www.w3.org/2000/svg" role="img" aria-label="Most used languages">
  <rect width="820" height="220" rx="12" fill="#1A1B27"/>
  <text x="28" y="48" fill="#70A5FD" font-family="Segoe UI, Arial, sans-serif" font-size="18" font-weight="700">Most Used Languages</text>
  <rect x="28" y="80" width="764" height="12" fill="#2b3440" rx="6"/>
  <rect x="28" y="80" width="702.139" height="12" fill="#3572A5" rx="6" /><rect x="730.139" y="80" width="32.207" height="12" fill="#f1e05a" rx="6" /><rect x="762.346" y="80" width="10.733" height="12" fill="#563d7c" rx="6" /><rect x="773.079" y="80" width="10.338" height="12" fill="#e34c26" rx="6" /><rect x="783.417" y="80" width="8.583" height="12" fill="#3178c6" rx="6" />
  <circle cx="28" cy="132" r="8" fill="#3572A5" /><text x="42" y="137" fill="#38BDAE" font-family="Segoe UI, Arial, sans-serif" font-size="14">Python 90.79%</text><circle cx="278" cy="132" r="8" fill="#f1e05a" /><text x="292" y="137" fill="#38BDAE" font-family="Segoe UI, Arial, sans-serif" font-size="14">JavaScript 4.16%</text><circle cx="528" cy="132" r="8" fill="#563d7c" /><text x="542" y="137" fill="#38BDAE" font-family="Segoe UI, Arial, sans-serif" font-size="14">CSS 1.39%</text><circle cx="28" cy="164" r="8" fill="#e34c26" /><text x="42" y="169" fill="#38BDAE" font-family="Segoe UI, Arial, sans-serif" font-size="14">HTML 1.34%</text><circle cx="278" cy="164" r="8" fill="#3178c6" /><text x="292" y="169" fill="#38BDAE" font-family="Segoe UI, Arial, sans-serif" font-size="14">TypeScript 1.11%</text>
</svg>
